<svg width="40" height="40" viewBox="0 0 40 40" fill="none" xmlns="http://www.w3.org/2000/svg">
<path opacity="0.2" d="M32.5 15V33.75C32.5 34.0815 32.3683 34.3995 32.1339 34.6339C31.8995 34.8683 31.5815 35 31.25 35H27.5V23.75C27.5 23.087 27.2366 22.4511 26.7678 21.9822C26.2989 21.5134 25.663 21.25 25 21.25H15C14.337 21.25 13.7011 21.5134 13.2322 21.9822C12.7634 22.4511 12.5 23.087 12.5 23.75V35H8.75C8.41848 35 8.10054 34.8683 7.86612 34.6339C7.6317 34.3995 7.5 34.0815 7.5 33.75V15C7.5 13.0109 8.29018 11.1032 9.6967 9.6967C11.1032 8.29018 13.0109 7.5 15 7.5H25C26.9891 7.5 28.8968 8.29018 30.3033 9.6967C31.7098 11.1032 32.5 13.0109 32.5 15Z" fill="#EB9F3E"/>
<path d="M26.25 6.34063V5C26.25 4.00544 25.8549 3.05161 25.1517 2.34835C24.4484 1.64509 23.4946 1.25 22.5 1.25H17.5C16.5054 1.25 15.5516 1.64509 14.8483 2.34835C14.1451 3.05161 13.75 4.00544 13.75 5V6.34063C11.6689 6.64396 9.76622 7.68556 8.38933 9.27529C7.01244 10.865 6.25313 12.8969 6.25 15V33.75C6.25 34.413 6.51339 35.0489 6.98223 35.5178C7.45107 35.9866 8.08696 36.25 8.75 36.25H31.25C31.913 36.25 32.5489 35.9866 33.0178 35.5178C33.4866 35.0489 33.75 34.413 33.75 33.75V15C33.7469 12.8969 32.9876 10.865 31.6107 9.27529C30.2338 7.68556 28.3311 6.64396 26.25 6.34063ZM17.5 3.75H22.5C22.8315 3.75 23.1495 3.8817 23.3839 4.11612C23.6183 4.35054 23.75 4.66848 23.75 5V6.25H16.25V5C16.25 4.66848 16.3817 4.35054 16.6161 4.11612C16.8505 3.8817 17.1685 3.75 17.5 3.75ZM26.25 25H13.75V23.75C13.75 23.4185 13.8817 23.1005 14.1161 22.8661C14.3505 22.6317 14.6685 22.5 15 22.5H25C25.3315 22.5 25.6495 22.6317 25.8839 22.8661C26.1183 23.1005 26.25 23.4185 26.25 23.75V25ZM13.75 27.5H21.25V28.75C21.25 29.0815 21.3817 29.3995 21.6161 29.6339C21.8505 29.8683 22.1685 30 22.5 30C22.8315 30 23.1495 29.8683 23.3839 29.6339C23.6183 29.3995 23.75 29.0815 23.75 28.75V27.5H26.25V33.75H13.75V27.5ZM31.25 33.75H28.75V23.75C28.75 22.7554 28.3549 21.8016 27.6517 21.0983C26.9484 20.3951 25.9946 20 25 20H15C14.0054 20 13.0516 20.3951 12.3483 21.0983C11.6451 21.8016 11.25 22.7554 11.25 23.75V33.75H8.75V15C8.75 13.3424 9.40848 11.7527 10.5806 10.5806C11.7527 9.40848 13.3424 8.75 15 8.75H25C26.6576 8.75 28.2473 9.40848 29.4194 10.5806C30.5915 11.7527 31.25 13.3424 31.25 15V33.75ZM23.75 13.75C23.75 14.0815 23.6183 14.3995 23.3839 14.6339C23.1495 14.8683 22.8315 15 22.5 15H17.5C17.1685 15 16.8505 14.8683 16.6161 14.6339C16.3817 14.3995 16.25 14.0815 16.25 13.75C16.25 13.4185 16.3817 13.1005 16.6161 12.8661C16.8505 12.6317 17.1685 12.5 17.5 12.5H22.5C22.8315 12.5 23.1495 12.6317 23.3839 12.8661C23.6183 13.1005 23.75 13.4185 23.75 13.75Z" fill="#EB9F3E"/>
</svg>
