<svg width="40" height="40" viewBox="0 0 40 40" fill="none" xmlns="http://www.w3.org/2000/svg">
<path opacity="0.2" d="M35 10L20 15L5 10L20 5L35 10Z" fill="#EB9F3E"/>
<path d="M35.3953 8.81415L20.3953 3.81416C20.1387 3.72861 19.8613 3.72861 19.6047 3.81416L4.60469 8.81415C4.37781 8.89068 4.17768 9.03076 4.0281 9.21773C3.87852 9.4047 3.78579 9.6307 3.76094 9.86884C3.7536 9.91221 3.74995 9.95611 3.75 10.0001V22.5001C3.75 22.8316 3.8817 23.1496 4.11612 23.384C4.35054 23.6184 4.66848 23.7501 5 23.7501C5.33152 23.7501 5.64946 23.6184 5.88388 23.384C6.1183 23.1496 6.25 22.8316 6.25 22.5001V11.7345L11.4984 13.4829C10.104 15.7357 9.66057 18.4498 10.2655 21.0293C10.8705 23.6088 12.4744 25.8428 14.725 27.2407C11.9125 28.3438 9.48125 30.3392 7.70313 33.0673C7.61065 33.2047 7.54642 33.3592 7.51416 33.5217C7.4819 33.6842 7.48226 33.8514 7.51522 34.0138C7.54818 34.1761 7.61308 34.3303 7.70615 34.4673C7.79922 34.6044 7.9186 34.7216 8.05735 34.8121C8.1961 34.9026 8.35146 34.9646 8.51439 34.9945C8.67732 35.0244 8.84457 35.0217 9.00643 34.9864C9.16829 34.9511 9.32152 34.884 9.45722 34.789C9.59291 34.694 9.70837 34.5729 9.79688 34.4329C12.1516 30.8204 15.8703 28.7501 20 28.7501C24.1297 28.7501 27.8484 30.8204 30.2031 34.4329C30.3865 34.7054 30.6697 34.8948 30.9915 34.9601C31.3134 35.0255 31.648 34.9615 31.9231 34.7821C32.1982 34.6027 32.3916 34.3222 32.4616 34.0013C32.5315 33.6804 32.4723 33.3449 32.2969 33.0673C30.5187 30.3392 28.0781 28.3438 25.275 27.2407C27.5235 25.8428 29.1258 23.6103 29.7307 21.0327C30.3356 18.4551 29.8935 15.7429 28.5016 13.4907L35.3953 11.1938C35.6443 11.1109 35.8608 10.9518 36.0143 10.7389C36.1677 10.526 36.2503 10.2703 36.2503 10.0079C36.2503 9.74551 36.1677 9.48976 36.0143 9.27691C35.8608 9.06406 35.6443 8.90489 35.3953 8.82197V8.81415ZM27.5 18.7501C27.5003 19.9358 27.2195 21.1047 26.6806 22.1609C26.1418 23.2171 25.3601 24.1304 24.3999 24.826C23.4397 25.5216 22.3282 25.9796 21.1567 26.1625C19.9851 26.3454 18.7869 26.2478 17.6604 25.878C16.5338 25.5081 15.5111 24.8764 14.6759 24.0347C13.8408 23.193 13.2171 22.1652 12.8561 21.0358C12.4951 19.9064 12.407 18.7075 12.599 17.5374C12.7911 16.3674 13.2578 15.2595 13.9609 14.3048L19.6047 16.1798C19.8613 16.2653 20.1387 16.2653 20.3953 16.1798L26.0391 14.3048C26.9887 15.5923 27.5008 17.1502 27.5 18.7501ZM20 13.6829L8.95313 10.0001L20 6.31728L31.0469 10.0001L20 13.6829Z" fill="#EB9F3E"/>
</svg>
