<svg width="628" height="85" viewBox="0 0 628 85" fill="none" xmlns="http://www.w3.org/2000/svg">
<mask id="mask0_3253_3797" style="mask-type:luminance" maskUnits="userSpaceOnUse" x="0" y="0" width="171" height="85">
<path d="M0 0H170.382V84.0189H0V0Z" fill="white"/>
</mask>
<g mask="url(#mask0_3253_3797)">
<mask id="mask1_3253_3797" style="mask-type:luminance" maskUnits="userSpaceOnUse" x="0" y="-1" width="171" height="86">
<path d="M170.791 -0.453125H0V84.4466H170.791V-0.453125Z" fill="white"/>
</mask>
<g mask="url(#mask1_3253_3797)">
<mask id="mask2_3253_3797" style="mask-type:luminance" maskUnits="userSpaceOnUse" x="0" y="0" width="171" height="85">
<path d="M0 0H170.24V84.0189H0V0Z" fill="white"/>
</mask>
<g mask="url(#mask2_3253_3797)">
<path d="M0 5.99999C0 2.68629 2.68629 0 6 0H164.22C167.534 0 170.22 2.68629 170.22 6V78.019C170.22 81.3327 167.534 84.0189 164.22 84.0189H6C2.68629 84.0189 0 81.3327 0 78.0189V5.99999Z" fill="#005F70"/>
</g>
</g>
</g>
<path d="M87.7212 25.072H86.3352L85.3194 22.0485H80.6279L79.6035 25.072H78.252L82.0913 14.0547H83.8818L87.7212 25.072ZM82.8833 15.3899L80.9894 20.9631H84.9493L83.064 15.3899H82.8833Z" fill="white"/>
<path d="M90.5266 25.1503C90.2382 25.1503 90.0122 25.0706 89.8465 24.9091C89.6851 24.7497 89.6055 24.5344 89.6055 24.263C89.6055 24.0046 89.6851 23.7936 89.8465 23.6256C90.0122 23.4533 90.2382 23.3672 90.5266 23.3672C90.8193 23.3672 91.0474 23.449 91.2152 23.6084C91.3809 23.7699 91.4649 23.9852 91.4649 24.2544C91.4649 24.5193 91.3788 24.7347 91.2066 24.9005C91.0388 25.0685 90.8128 25.1503 90.5266 25.1503Z" fill="white"/>
<path d="M10.0472 46.5642H8.85059V35.5469H10.7703L14.1103 44.8759H14.2653L17.5967 35.5469H19.4561V46.5642H18.2251V37.5798L18.0357 37.5453L14.7818 46.5642H13.4991L10.2365 37.5453L10.0472 37.5798V46.5642Z" fill="white"/>
<path d="M24.5507 46.7203C23.7286 46.7203 23.0895 46.5092 22.6311 46.0828C22.1705 45.6586 21.9424 45.0492 21.9424 44.2567C21.9424 43.7635 22.0414 43.3479 22.2437 43.0076C22.4503 42.6695 22.7645 42.3939 23.1906 42.1807C23.621 41.9632 24.1806 41.7974 24.8692 41.6811C25.4718 41.5842 25.9281 41.4722 26.238 41.3451C26.5522 41.2202 26.7631 41.0781 26.8664 40.9231C26.974 40.768 27.0299 40.5742 27.0299 40.3373C27.0299 39.9583 26.9008 39.6697 26.6426 39.4673C26.3843 39.267 25.9711 39.1658 25.403 39.1658C24.8628 39.1658 24.4001 39.2735 24.017 39.4845C23.6318 39.6912 23.2788 40.0014 22.9582 40.4148H22.8118L22.2092 39.562C22.5579 39.1141 23.0034 38.7588 23.5435 38.4939C24.088 38.2312 24.7078 38.0977 25.403 38.0977C26.3779 38.0977 27.0988 38.313 27.5637 38.7437C28.0285 39.1744 28.2609 39.7688 28.2609 40.5268V44.9286C28.2609 45.3937 28.4546 45.6263 28.8463 45.6263C28.9776 45.6263 29.1046 45.6048 29.2251 45.5574L29.3284 45.5832L29.4747 46.436C29.3822 46.5006 29.2617 46.5459 29.1132 46.5738C28.9625 46.6083 28.8119 46.6255 28.6569 46.6255C28.2028 46.6255 27.8585 46.5265 27.6239 46.324C27.3872 46.1238 27.2387 45.8287 27.1763 45.4368L27.0213 45.4196C26.7846 45.8567 26.4661 46.1841 26.0658 46.4016C25.6634 46.6126 25.1576 46.7203 24.5507 46.7203ZM24.8176 45.7469C25.2824 45.7469 25.6827 45.6414 26.0228 45.4282C26.3606 45.2107 26.6189 44.9092 26.7975 44.5237C26.9804 44.1404 27.073 43.6925 27.073 43.1799V42.129L26.9266 42.0946C26.7416 42.2281 26.5156 42.3401 26.2466 42.4305C25.9819 42.5166 25.6117 42.5942 25.1361 42.6631C24.654 42.7277 24.2688 42.8268 23.9826 42.9646C23.7006 43.1024 23.5005 43.2747 23.38 43.4814C23.2595 43.6882 23.1992 43.9466 23.1992 44.2567C23.1992 44.7391 23.3412 45.1095 23.6296 45.3679C23.9159 45.622 24.3118 45.7469 24.8176 45.7469Z" fill="white"/>
<path d="M31.1602 46.5641V34.918H32.3825V41.723H32.5891L35.6796 38.2516H36.9622V38.4325L33.6738 42.1537L37.2807 46.3746V46.5641H35.912L32.5891 42.7223H32.3825V46.5641H31.1602Z" fill="white"/>
<path d="M45.2213 42.6975H39.5139C39.5483 43.7032 39.7894 44.444 40.237 44.92C40.689 45.3916 41.3066 45.6263 42.0878 45.6263C42.684 45.6263 43.1596 45.5208 43.5168 45.3076C43.8784 45.0965 44.1624 44.7649 44.369 44.317H44.5326L45.3246 44.7907C45.0835 45.3937 44.6983 45.8675 44.1711 46.2121C43.6416 46.5523 42.9487 46.7203 42.0878 46.7203C41.2829 46.7203 40.5921 46.5631 40.0132 46.2465C39.4386 45.9321 38.9974 45.4519 38.6875 44.808C38.3776 44.1662 38.2227 43.3673 38.2227 42.4133C38.2227 41.4722 38.3862 40.6776 38.7133 40.0272C39.0405 39.379 39.4881 38.8966 40.0562 38.58C40.6287 38.2592 41.2829 38.0977 42.019 38.0977C43.0799 38.0977 43.9085 38.3991 44.5068 39.0021C45.1029 39.6008 45.4042 40.4902 45.4107 41.6725C45.4107 42.1333 45.3978 42.4434 45.3762 42.6028L45.2213 42.6975ZM44.1969 41.6725C44.1797 40.7895 43.9838 40.1456 43.6115 39.7429C43.237 39.3424 42.7076 39.14 42.019 39.14C41.2894 39.14 40.7148 39.3445 40.2973 39.7515C39.8841 40.1543 39.6344 40.7938 39.5483 41.6725H44.1969Z" fill="white"/>
<path d="M55.5552 45.2476L55.9512 46.1263C55.7553 46.3222 55.4971 46.4687 55.1764 46.5656C54.8601 46.669 54.5157 46.7206 54.1434 46.7206C52.5595 46.7206 51.7675 45.9195 51.7675 44.3173V39.2609H50.3213V38.2531H51.7675V36.4958L52.9899 36.2891V38.2531H55.6671V39.2609H52.9899V44.1967C52.9899 45.1507 53.4031 45.6267 54.2295 45.6267C54.6814 45.6267 55.0731 45.5018 55.4002 45.2476H55.5552Z" fill="white"/>
<path d="M57.7129 46.5641V34.918H58.9353V39.4403L59.0988 39.4662C59.6885 38.5531 60.5451 38.0965 61.6641 38.0965C62.6627 38.0965 63.3858 38.3528 63.8335 38.8632C64.2854 39.3757 64.5135 40.1596 64.5135 41.2148V46.5641H63.2825V41.2493C63.2825 40.7453 63.2158 40.3405 63.0845 40.0347C62.9576 39.731 62.7596 39.5092 62.4906 39.3714C62.2258 39.2336 61.8751 39.1647 61.4403 39.1647C60.6871 39.1647 60.0824 39.4102 59.624 39.8969C59.1634 40.3857 58.9353 41.1868 58.9353 42.3002V46.5641H57.7129Z" fill="white"/>
<path d="M73.7389 42.6975H68.0315C68.0659 43.7032 68.307 44.444 68.7546 44.92C69.2065 45.3916 69.8242 45.6263 70.6054 45.6263C71.2015 45.6263 71.6771 45.5208 72.0344 45.3076C72.3959 45.0965 72.68 44.7649 72.8866 44.317H73.0502L73.8422 44.7907C73.6011 45.3937 73.2159 45.8675 72.6886 46.2121C72.1592 46.5523 71.4662 46.7203 70.6054 46.7203C69.8005 46.7203 69.1097 46.5631 68.5308 46.2465C67.9562 45.9321 67.515 45.4519 67.2051 44.808C66.8952 44.1662 66.7402 43.3673 66.7402 42.4133C66.7402 41.4722 66.9038 40.6776 67.2309 40.0272C67.558 39.379 68.0057 38.8966 68.5738 38.58C69.1463 38.2592 69.8005 38.0977 70.5365 38.0977C71.5975 38.0977 72.4261 38.3991 73.0244 39.0021C73.6205 39.6008 73.9218 40.4902 73.9282 41.6725C73.9282 42.1333 73.9153 42.4434 73.8938 42.6028L73.7389 42.6975ZM72.7145 41.6725C72.6972 40.7895 72.5014 40.1456 72.1291 39.7429C71.7546 39.3424 71.2252 39.14 70.5365 39.14C69.807 39.14 69.2324 39.3445 68.8149 39.7515C68.4017 40.1543 68.152 40.7938 68.0659 41.6725H72.7145Z" fill="white"/>
<path d="M80.5263 36.6494C80.2616 36.6494 80.0464 36.5697 79.8807 36.4082C79.7192 36.2424 79.6396 36.0356 79.6396 35.788C79.6396 35.536 79.7192 35.3293 79.8807 35.1678C80.0464 35.002 80.2616 34.918 80.5263 34.918C80.7845 34.918 80.9933 35.002 81.1547 35.1678C81.3204 35.3293 81.4043 35.536 81.4043 35.788C81.4043 36.0356 81.3204 36.2424 81.1547 36.4082C80.9933 36.5697 80.7845 36.6494 80.5263 36.6494ZM78.8649 50.0872C78.6066 50.0872 78.3785 50.0657 78.1762 50.027C77.976 49.9925 77.7802 49.9408 77.5908 49.8719L77.7802 48.9244L77.9265 48.8727C78.1805 48.9696 78.4344 49.0191 78.6927 49.0191C79.0822 49.0191 79.3814 48.8899 79.588 48.6315C79.7989 48.3731 79.9065 48.0027 79.9065 47.5203V38.2516H81.1289V47.4772C81.1289 48.3085 80.9309 48.9524 80.5349 49.4067C80.1389 49.859 79.5815 50.0872 78.8649 50.0872Z" fill="white"/>
<path d="M87.3478 46.7203C86.5601 46.7203 85.8779 46.5566 85.299 46.2293C84.7179 45.8976 84.2703 45.4088 83.9561 44.7649C83.6462 44.1167 83.4912 43.3328 83.4912 42.4133C83.4912 41.4959 83.6462 40.712 83.9561 40.0617C84.2703 39.4134 84.7179 38.9246 85.299 38.5973C85.8779 38.2656 86.5601 38.0977 87.3478 38.0977C88.1268 38.0977 88.8069 38.2656 89.388 38.5973C89.9669 38.9246 90.4124 39.4134 90.7223 40.0617C91.0365 40.712 91.1957 41.4959 91.1957 42.4133C91.1957 43.3328 91.0365 44.1167 90.7223 44.7649C90.4124 45.4088 89.9669 45.8976 89.388 46.2293C88.8069 46.5566 88.1268 46.7203 87.3478 46.7203ZM87.3478 45.6263C88.1742 45.6263 88.8047 45.3657 89.2416 44.8424C89.6828 44.3213 89.9045 43.5116 89.9045 42.4133C89.9045 41.3171 89.6828 40.5074 89.2416 39.9841C88.8047 39.463 88.1742 39.2003 87.3478 39.2003C86.5149 39.2003 85.8779 39.4651 85.4367 39.9927C84.9934 40.516 84.7739 41.3236 84.7739 42.4133C84.7739 43.5116 84.9934 44.3213 85.4367 44.8424C85.8779 45.3657 86.5149 45.6263 87.3478 45.6263Z" fill="white"/>
<path d="M96.2159 46.7176C95.2733 46.7176 94.5738 46.4721 94.1154 45.9768C93.6549 45.4772 93.4268 44.7493 93.4268 43.7888V38.25H94.6578V43.763C94.6578 45.0206 95.2474 45.6494 96.4311 45.6494C97.1822 45.6494 97.7761 45.4061 98.213 44.9172C98.6477 44.4241 98.8673 43.623 98.8673 42.5139V38.25H100.098V46.5625H98.9361V45.2618L98.7812 45.2187C98.4928 45.7313 98.1485 46.1103 97.7482 46.3558C97.3522 46.597 96.84 46.7176 96.2159 46.7176Z" fill="white"/>
<path d="M102.988 46.565V38.2525H104.15V39.5618L104.314 39.5963C104.697 38.6552 105.424 38.1836 106.492 38.1836C107.06 38.1836 107.484 38.287 107.766 38.4937L107.447 39.5274L107.301 39.5618C106.991 39.4068 106.649 39.3293 106.277 39.3293C105.616 39.3293 105.106 39.5791 104.744 40.0787C104.387 40.574 104.211 41.3772 104.211 42.4906V46.565H102.988Z" fill="white"/>
<path d="M109.402 46.5652V38.2527H110.564V39.562L110.728 39.5965C111.004 39.1098 111.352 38.7394 111.778 38.4853C112.209 38.2269 112.734 38.0977 113.354 38.0977C114.352 38.0977 115.075 38.3539 115.523 38.8643C115.975 39.3768 116.203 40.1607 116.203 41.2159V46.5652H114.972V41.2504C114.972 40.7465 114.905 40.3416 114.774 40.0358C114.647 39.7322 114.449 39.5104 114.18 39.3725C113.915 39.2347 113.565 39.1658 113.13 39.1658C112.377 39.1658 111.772 39.4156 111.313 39.9152C110.853 40.4105 110.625 41.2052 110.625 42.3013V46.5652H109.402Z" fill="white"/>
<path d="M125.428 42.6975H119.721C119.755 43.7032 119.996 44.444 120.444 44.92C120.896 45.3916 121.514 45.6263 122.295 45.6263C122.891 45.6263 123.367 45.5208 123.724 45.3076C124.085 45.0965 124.369 44.7649 124.576 44.317H124.74L125.532 44.7907C125.291 45.3937 124.905 45.8675 124.378 46.2121C123.849 46.5523 123.156 46.7203 122.295 46.7203C121.49 46.7203 120.799 46.5631 120.22 46.2465C119.646 45.9321 119.204 45.4519 118.895 44.808C118.585 44.1662 118.43 43.3673 118.43 42.4133C118.43 41.4722 118.593 40.6776 118.92 40.0272C119.247 39.379 119.695 38.8966 120.263 38.58C120.836 38.2592 121.49 38.0977 122.226 38.0977C123.287 38.0977 124.116 38.3991 124.714 39.0021C125.31 39.6008 125.611 40.4902 125.618 41.6725C125.618 42.1333 125.605 42.4434 125.583 42.6028L125.428 42.6975ZM124.404 41.6725C124.387 40.7895 124.191 40.1456 123.819 39.7429C123.444 39.3424 122.915 39.14 122.226 39.14C121.496 39.14 120.922 39.3445 120.504 39.7515C120.091 40.1543 119.841 40.7938 119.755 41.6725H124.404Z" fill="white"/>
<path d="M128.032 50.0857C127.75 50.0857 127.485 50.062 127.24 50.0167C126.999 49.9694 126.792 49.9048 126.62 49.8186L126.844 48.8452L126.982 48.8022C127.102 48.8582 127.251 48.9077 127.429 48.9486C127.612 48.9938 127.799 49.0175 127.989 49.0175C128.327 49.0175 128.604 48.9701 128.824 48.8797C129.048 48.7936 129.237 48.6428 129.392 48.4318C129.551 48.225 129.698 47.9365 129.831 47.5704L130.124 46.7606L126.792 38.25H128.118L130.726 45.0292H130.873L133.404 38.25H134.66L130.95 47.8632C130.737 48.3973 130.498 48.8237 130.236 49.1467C129.977 49.4741 129.67 49.7109 129.315 49.8617C128.957 50.0103 128.531 50.0857 128.032 50.0857Z" fill="white"/>
<path d="M142.332 46.7203C141.51 46.7203 140.871 46.5092 140.412 46.0828C139.952 45.6586 139.724 45.0492 139.724 44.2567C139.724 43.7635 139.823 43.3479 140.025 43.0076C140.232 42.6695 140.546 42.3939 140.972 42.1807C141.402 41.9632 141.962 41.7974 142.65 41.6811C143.253 41.5842 143.709 41.4722 144.019 41.3451C144.333 41.2202 144.544 41.0781 144.648 40.9231C144.755 40.768 144.811 40.5742 144.811 40.3373C144.811 39.9583 144.682 39.6697 144.424 39.4673C144.166 39.267 143.752 39.1658 143.184 39.1658C142.644 39.1658 142.181 39.2735 141.798 39.4845C141.413 39.6912 141.06 40.0014 140.739 40.4148H140.593L139.99 39.562C140.339 39.1141 140.785 38.7588 141.325 38.4939C141.869 38.2312 142.489 38.0977 143.184 38.0977C144.159 38.0977 144.88 38.313 145.345 38.7437C145.81 39.1744 146.042 39.7688 146.042 40.5268V44.9286C146.042 45.3937 146.236 45.6263 146.628 45.6263C146.759 45.6263 146.886 45.6048 147.006 45.5574L147.11 45.5832L147.256 46.436C147.163 46.5006 147.043 46.5459 146.894 46.5738C146.744 46.6083 146.593 46.6255 146.438 46.6255C145.984 46.6255 145.64 46.5265 145.405 46.324C145.168 46.1238 145.02 45.8287 144.958 45.4368L144.803 45.4196C144.566 45.8567 144.247 46.1841 143.847 46.4016C143.445 46.6126 142.939 46.7203 142.332 46.7203ZM142.599 45.7469C143.064 45.7469 143.464 45.6414 143.804 45.4282C144.142 45.2107 144.4 44.9092 144.579 44.5237C144.762 44.1404 144.854 43.6925 144.854 43.1799V42.129L144.708 42.0946C144.523 42.2281 144.297 42.3401 144.028 42.4305C143.763 42.5166 143.393 42.5942 142.917 42.6631C142.435 42.7277 142.05 42.8268 141.764 42.9646C141.482 43.1024 141.282 43.2747 141.161 43.4814C141.041 43.6882 140.98 43.9466 140.98 44.2567C140.98 44.7391 141.122 45.1095 141.411 45.3679C141.697 45.622 142.093 45.7469 142.599 45.7469Z" fill="white"/>
<path d="M148.941 46.5652V38.2527H150.104V39.562L150.267 39.5965C150.543 39.1098 150.891 38.7394 151.317 38.4853C151.748 38.2269 152.273 38.0977 152.893 38.0977C153.891 38.0977 154.614 38.3539 155.062 38.8643C155.514 39.3768 155.742 40.1607 155.742 41.2159V46.5652H154.511V41.2504C154.511 40.7465 154.444 40.3416 154.313 40.0358C154.186 39.7322 153.988 39.5104 153.719 39.3725C153.454 39.2347 153.104 39.1658 152.669 39.1658C151.916 39.1658 151.311 39.4156 150.852 39.9152C150.392 40.4105 150.164 41.2052 150.164 42.3013V46.5652H148.941Z" fill="white"/>
<path d="M161.36 46.7192C160.693 46.7192 160.106 46.562 159.596 46.2454C159.084 45.9245 158.685 45.4421 158.399 44.7982C158.111 44.1565 157.969 43.3597 157.969 42.4122C157.969 41.4646 158.117 40.67 158.416 40.0261C158.72 39.3779 159.135 38.8955 159.665 38.5789C160.192 38.2581 160.805 38.0965 161.507 38.0965C162.058 38.0965 162.553 38.2042 162.996 38.4153C163.437 38.622 163.816 38.9644 164.132 39.4403L164.287 39.4059V34.918H165.518V46.5641H164.287V45.3495L164.132 45.3237C163.861 45.7329 163.495 46.0688 163.03 46.3315C162.566 46.59 162.008 46.7192 161.36 46.7192ZM161.748 45.6252C162.516 45.6252 163.129 45.3625 163.59 44.8327C164.055 44.2986 164.287 43.4932 164.287 42.4122C164.287 41.3268 164.055 40.5214 163.59 39.9916C163.129 39.464 162.516 39.1991 161.748 39.1991C160.949 39.1991 160.332 39.4576 159.897 39.9744C159.467 40.4912 159.251 41.3053 159.251 42.4122C159.251 44.5549 160.082 45.6252 161.748 45.6252Z" fill="white"/>
<path d="M13.8296 68.2114C13.2098 68.2114 12.6718 68.0929 12.2198 67.8582C11.7657 67.617 11.4063 67.3026 11.1438 66.9106L10.9802 66.9451V68.0563H9.75781V56.4102H10.9802V60.9928L11.1438 61.0187C11.7743 60.0668 12.6933 59.5887 13.8985 59.5887C14.5807 59.5887 15.1768 59.7481 15.689 60.0625C16.199 60.3791 16.595 60.8614 16.877 61.5097C17.1632 62.1536 17.3074 62.9525 17.3074 63.9043C17.3074 64.8519 17.1567 65.6487 16.8597 66.2904C16.5606 66.9343 16.1495 67.4167 15.6287 67.7376C15.1058 68.0542 14.5053 68.2114 13.8296 68.2114ZM13.5369 67.1174C15.194 67.1174 16.0247 66.0471 16.0247 63.9043C16.0247 62.7974 15.8052 61.9834 15.3705 61.4666C14.9401 60.9497 14.3289 60.6913 13.5369 60.6913C12.7557 60.6913 12.1337 60.9562 11.6689 61.4838C11.2083 62.0136 10.9802 62.819 10.9802 63.9043C10.9802 64.9854 11.2083 65.7908 11.6689 66.3249C12.1337 66.8546 12.7557 67.1174 13.5369 67.1174Z" fill="white"/>
<path d="M19.666 68.0572V59.7447H20.8281V61.054L20.9917 61.0885C21.3748 60.1474 22.1022 59.6758 23.1696 59.6758C23.7378 59.6758 24.1617 59.7791 24.4437 59.9859L24.1252 61.0196L23.9788 61.054C23.6689 60.899 23.3267 60.8214 22.9544 60.8214C22.2937 60.8214 21.7837 61.0713 21.4221 61.5709C21.0649 62.0662 20.8884 62.8694 20.8884 63.9828V68.0572H19.666Z" fill="white"/>
<path d="M26.6992 58.1416C26.4345 58.1416 26.2192 58.0619 26.0535 57.9004C25.8921 57.7346 25.8125 57.5278 25.8125 57.2802C25.8125 57.0282 25.8921 56.8215 26.0535 56.66C26.2192 56.4941 26.4345 56.4102 26.6992 56.4102C26.9574 56.4102 27.1662 56.4941 27.3276 56.66C27.4933 56.8215 27.5772 57.0282 27.5772 57.2802C27.5772 57.5278 27.4933 57.7346 27.3276 57.9004C27.1662 58.0619 26.9574 58.1416 26.6992 58.1416ZM26.0794 68.0563V59.7438H27.3018V68.0563H26.0794Z" fill="white"/>
<path d="M30.1982 68.0574V59.7449H31.3604V61.0542L31.5239 61.0887C31.7994 60.602 32.148 60.2316 32.5742 59.9775C33.0046 59.7191 33.5297 59.5898 34.1495 59.5898C35.1481 59.5898 35.8712 59.8461 36.3188 60.3565C36.7708 60.869 36.9989 61.6529 36.9989 62.7081V68.0574H35.7679V62.7426C35.7679 62.2387 35.7012 61.8338 35.5699 61.528C35.4429 61.2244 35.2449 61.0025 34.9759 60.8647C34.7112 60.7269 34.3604 60.658 33.9257 60.658C33.1724 60.658 32.5677 60.9078 32.1093 61.4074C31.6488 61.9027 31.4206 62.6973 31.4206 63.7935V68.0574H30.1982Z" fill="white"/>
<path d="M42.5908 71.5783C41.2759 71.5783 40.3182 71.3586 39.7156 70.9236C39.1173 70.4865 38.8203 69.9072 38.8203 69.1836C38.8203 68.7184 38.9602 68.348 39.2421 68.0724C39.5219 67.7967 39.9308 67.5986 40.4645 67.478V67.3143C40.2106 67.1722 40.019 67.0021 39.8878 66.8061C39.7608 66.6123 39.6984 66.3797 39.6984 66.1084C39.6984 65.7875 39.7974 65.5269 39.9997 65.3245C40.2063 65.1242 40.5097 64.9692 40.9122 64.8593V64.7043C40.004 64.2284 39.552 63.4531 39.552 62.3785C39.552 61.8337 39.6747 61.3513 39.9222 60.9314C40.1675 60.5071 40.5183 60.1776 40.9724 59.9407C41.4308 59.706 41.9645 59.5876 42.5736 59.5876C43.273 59.5876 43.8562 59.7405 44.3211 60.0441C44.4932 59.8503 44.6224 59.6393 44.7085 59.4153C44.7988 59.1913 44.8569 58.9394 44.8806 58.6573L45.0442 58.5625L46.0514 58.8037C45.9997 59.2301 45.8706 59.5876 45.664 59.8804C45.4617 60.169 45.1776 60.4059 44.8118 60.5954V60.7591C45.0743 60.9658 45.2702 61.2135 45.3971 61.4999C45.5284 61.782 45.5951 62.1115 45.5951 62.4905C45.5951 63.0138 45.4681 63.4854 45.2163 63.9032C44.9624 64.3167 44.6073 64.644 44.1489 64.8852C43.6948 65.1221 43.1697 65.2384 42.5736 65.2384C42.5047 65.2384 42.3777 65.2341 42.1948 65.2211C41.9925 65.2104 41.8462 65.2039 41.7558 65.2039C41.4911 65.2039 41.2823 65.2728 41.1274 65.4106C40.9724 65.5485 40.8949 65.7207 40.8949 65.9275C40.8949 66.1924 40.9767 66.3883 41.1446 66.5132C41.3167 66.6338 41.5944 66.7006 41.9796 66.7114L43.9423 66.7803C44.7902 66.8104 45.4186 67.0085 45.8275 67.3746C46.2343 67.7364 46.4387 68.2533 46.4387 68.9252C46.4387 69.4183 46.3053 69.8641 46.0428 70.2603C45.778 70.6609 45.3562 70.9796 44.7773 71.2165C44.2027 71.4577 43.4731 71.5783 42.5908 71.5783ZM42.5736 64.1875C43.1589 64.1875 43.6109 64.0367 43.9337 63.7309C44.2544 63.4208 44.4158 62.9901 44.4158 62.4388C44.4158 61.866 44.2544 61.4224 43.9337 61.1122C43.6173 60.7978 43.1632 60.6385 42.5736 60.6385C41.9817 60.6385 41.5277 60.7935 41.2134 61.1036C40.9035 61.4137 40.7486 61.8595 40.7486 62.4388C40.7486 62.9966 40.9035 63.4273 41.2134 63.7309C41.5277 64.0367 41.9817 64.1875 42.5736 64.1875ZM42.5908 70.5274C43.1977 70.5274 43.697 70.4585 44.0886 70.3206C44.4782 70.1871 44.7558 70.0105 44.9237 69.7866C45.0958 69.5626 45.1819 69.3128 45.1819 69.0371C45.1819 68.7895 45.1346 68.5892 45.0442 68.4342C44.9516 68.2834 44.8031 68.1714 44.5965 68.0982C44.3899 68.025 44.108 67.9776 43.7529 67.9604L41.8935 67.8656H41.6353C40.5958 67.8829 40.0771 68.2877 40.0771 69.0802C40.0771 70.045 40.9143 70.5274 42.5908 70.5274Z" fill="white"/>
<path d="M56.1167 68.2114C55.4969 68.2114 54.9589 68.0929 54.5069 67.8582C54.0528 67.617 53.6934 67.3026 53.4309 66.9106L53.2673 66.9451V68.0563H52.0449V56.4102H53.2673V60.9928L53.4309 61.0187C54.0614 60.0668 54.9804 59.5887 56.1856 59.5887C56.8678 59.5887 57.4639 59.7481 57.9761 60.0625C58.4862 60.3791 58.8821 60.8614 59.1641 61.5097C59.4503 62.1536 59.5945 62.9525 59.5945 63.9043C59.5945 64.8519 59.4438 65.6487 59.1468 66.2904C58.8477 66.9343 58.4367 67.4167 57.9158 67.7376C57.3929 68.0542 56.7925 68.2114 56.1167 68.2114ZM55.824 67.1174C57.4811 67.1174 58.3118 66.0471 58.3118 63.9043C58.3118 62.7974 58.0923 61.9834 57.6576 61.4666C57.2272 60.9497 56.616 60.6913 55.824 60.6913C55.0428 60.6913 54.4208 60.9562 53.956 61.4838C53.4954 62.0136 53.2673 62.819 53.2673 63.9043C53.2673 64.9854 53.4954 65.7908 53.956 66.3249C54.4208 66.8546 55.0428 67.1174 55.824 67.1174Z" fill="white"/>
<path d="M63.9326 68.2125C63.1105 68.2125 62.4713 68.0014 62.0129 67.575C61.5523 67.1508 61.3242 66.5414 61.3242 65.7489C61.3242 65.2557 61.4232 64.8401 61.6255 64.4998C61.8321 64.1617 62.1463 63.8861 62.5724 63.6729C63.0029 63.4554 63.5624 63.2896 64.2511 63.1733C64.8537 63.0764 65.3099 62.9644 65.6198 62.8373C65.934 62.7124 66.1449 62.5703 66.2482 62.4152C66.3558 62.2602 66.4118 62.0664 66.4118 61.8295C66.4118 61.4505 66.2827 61.1619 66.0244 60.9595C65.7662 60.7592 65.3529 60.658 64.7848 60.658C64.2446 60.658 63.7819 60.7657 63.3988 60.9767C63.0136 61.1834 62.6607 61.4935 62.34 61.907H62.1937L61.5911 61.0542C61.9397 60.6063 62.3852 60.251 62.9254 59.9861C63.4699 59.7234 64.0897 59.5898 64.7848 59.5898C65.7597 59.5898 66.4806 59.8052 66.9455 60.2359C67.4104 60.6666 67.6428 61.261 67.6428 62.019V66.4208C67.6428 66.8859 67.8365 67.1185 68.2282 67.1185C68.3594 67.1185 68.4864 67.097 68.6069 67.0496L68.7102 67.0754L68.8566 67.9282C68.764 67.9928 68.6435 68.038 68.495 68.066C68.3444 68.1005 68.1937 68.1177 68.0388 68.1177C67.5847 68.1177 67.2403 68.0187 67.0058 67.8162C66.769 67.616 66.6205 67.3209 66.5581 66.929L66.4032 66.9118C66.1664 67.3489 65.8479 67.6763 65.4476 67.8938C65.0452 68.1048 64.5395 68.2125 63.9326 68.2125ZM64.1994 67.2391C64.6643 67.2391 65.0646 67.1336 65.4046 66.9204C65.7425 66.7029 66.0007 66.4014 66.1794 66.0159C66.3623 65.6326 66.4548 65.1846 66.4548 64.6721V63.6212L66.3085 63.5867C66.1234 63.7203 65.8974 63.8322 65.6284 63.9227C65.3637 64.0088 64.9935 64.0864 64.5179 64.1553C64.0359 64.2199 63.6506 64.3189 63.3644 64.4568C63.0825 64.5946 62.8823 64.7669 62.7618 64.9736C62.6413 65.1803 62.581 65.4388 62.581 65.7489C62.581 66.2312 62.7231 66.6017 63.0115 66.8601C63.2977 67.1142 63.6937 67.2391 64.1994 67.2391Z" fill="white"/>
<path d="M73.8654 68.2125C73.1293 68.2125 72.4708 68.0467 71.8854 67.7129C71.3044 67.3812 70.846 66.8902 70.5081 66.2399C70.1745 65.5917 70.0088 64.8142 70.0088 63.9055C70.0088 62.9988 70.1745 62.2214 70.5081 61.5711C70.846 60.9164 71.3044 60.4232 71.8854 60.0895C72.4708 59.7578 73.1293 59.5898 73.8654 59.5898C74.7434 59.5898 75.4407 59.7578 75.9572 60.0895C76.478 60.4168 76.8546 60.8604 77.0849 61.416L76.2499 62.019H76.0949C75.8711 61.5603 75.5806 61.2244 75.2255 61.0112C74.8747 60.8001 74.4206 60.6924 73.8654 60.6924C73.3488 60.6924 72.8969 60.813 72.5138 61.0542C72.1286 61.2954 71.8273 61.6572 71.61 62.1396C71.3969 62.622 71.2914 63.212 71.2914 63.9055C71.2914 64.601 71.399 65.189 71.6186 65.6713C71.8359 66.1494 72.1351 66.5112 72.5138 66.7567C72.8969 66.9979 73.3488 67.1185 73.8654 67.1185C74.4378 67.1185 74.9156 66.9893 75.2943 66.7309C75.6731 66.4681 75.9701 66.0547 76.1896 65.4904H76.3446L77.1538 65.9642C76.9342 66.6598 76.5469 67.2089 75.9916 67.6095C75.4407 68.0122 74.7305 68.2125 73.8654 68.2125Z" fill="white"/>
<path d="M79.1025 68.0563V56.4102H80.3249V63.2152H80.5315L83.6219 59.7438H84.9046V59.9247L81.6162 63.6459L85.2231 67.8668V68.0563H83.8544L80.5315 64.2145H80.3249V68.0563H79.1025Z" fill="white"/>
<path d="M94.772 66.7398L95.168 67.6185C94.9721 67.8144 94.7139 67.9609 94.3932 68.0578C94.0769 68.1611 93.7325 68.2128 93.3602 68.2128C91.7763 68.2128 90.9843 67.4117 90.9843 65.8095V60.7531H89.5381V59.7452H90.9843V57.988L92.2067 57.7812V59.7452H94.8839V60.7531H92.2067V65.6889C92.2067 66.6429 92.6199 67.1188 93.4463 67.1188C93.8982 67.1188 94.2899 66.9939 94.617 66.7398H94.772Z" fill="white"/>
<path d="M96.9297 68.0563V56.4102H98.1521V60.9325L98.3156 60.9584C98.9053 60.0453 99.7618 59.5887 100.881 59.5887C101.88 59.5887 102.603 59.845 103.05 60.3554C103.502 60.8679 103.73 61.6518 103.73 62.707V68.0563H102.499V62.7415C102.499 62.2375 102.433 61.8327 102.301 61.5269C102.174 61.2232 101.976 61.0014 101.707 60.8636C101.443 60.7258 101.092 60.6569 100.657 60.6569C99.9039 60.6569 99.2991 60.9024 98.8408 61.3891C98.3802 61.8779 98.1521 62.679 98.1521 63.7924V68.0563H96.9297Z" fill="white"/>
<path d="M112.956 64.1897H107.248C107.283 65.1954 107.524 65.9362 107.971 66.4121C108.423 66.8838 109.041 67.1185 109.822 67.1185C110.418 67.1185 110.894 67.013 111.251 66.7998C111.613 66.5887 111.897 66.2571 112.103 65.8092H112.267L113.059 66.2829C112.818 66.8859 112.433 67.3597 111.905 67.7042C111.376 68.0445 110.683 68.2125 109.822 68.2125C109.017 68.2125 108.326 68.0553 107.748 67.7387C107.173 67.4243 106.732 66.9441 106.422 66.3002C106.112 65.6584 105.957 64.8595 105.957 63.9055C105.957 62.9644 106.121 62.1697 106.448 61.5194C106.775 60.8712 107.222 60.3888 107.791 60.0722C108.363 59.7514 109.017 59.5898 109.753 59.5898C110.814 59.5898 111.643 59.8913 112.241 60.4943C112.837 61.093 113.139 61.9824 113.145 63.1647C113.145 63.6255 113.132 63.9356 113.111 64.095L112.956 64.1897ZM111.931 63.1647C111.914 62.2817 111.718 61.6378 111.346 61.2351C110.971 60.8346 110.442 60.6321 109.753 60.6321C109.024 60.6321 108.449 60.8367 108.032 61.2437C107.618 61.6464 107.369 62.286 107.283 63.1647H111.931Z" fill="white"/>
<path d="M121.792 68.0547H120.243L118.211 59.7422H119.425L121 66.6248H121.155L123.092 59.7422H124.375L126.372 66.6248H126.527L128.076 59.7422H129.247L127.241 68.0547H125.683L123.781 61.6028H123.626L121.792 68.0547Z" fill="white"/>
<path d="M133.081 68.2125C132.259 68.2125 131.62 68.0014 131.161 67.575C130.701 67.1508 130.473 66.5414 130.473 65.7489C130.473 65.2557 130.572 64.8401 130.774 64.4998C130.981 64.1617 131.295 63.8861 131.721 63.6729C132.151 63.4554 132.711 63.2896 133.4 63.1733C134.002 63.0764 134.458 62.9644 134.768 62.8373C135.082 62.7124 135.293 62.5703 135.397 62.4152C135.504 62.2602 135.56 62.0664 135.56 61.8295C135.56 61.4505 135.431 61.1619 135.173 60.9595C134.915 60.7592 134.501 60.658 133.933 60.658C133.393 60.658 132.93 60.7657 132.547 60.9767C132.162 61.1834 131.809 61.4935 131.488 61.907H131.342L130.74 61.0542C131.088 60.6063 131.534 60.251 132.074 59.9861C132.618 59.7234 133.238 59.5898 133.933 59.5898C134.908 59.5898 135.629 59.8052 136.094 60.2359C136.559 60.6666 136.791 61.261 136.791 62.019V66.4208C136.791 66.8859 136.985 67.1185 137.377 67.1185C137.508 67.1185 137.635 67.097 137.755 67.0496L137.859 67.0754L138.005 67.9282C137.912 67.9928 137.792 68.038 137.643 68.066C137.493 68.1005 137.342 68.1177 137.187 68.1177C136.733 68.1177 136.389 68.0187 136.154 67.8162C135.917 67.616 135.769 67.3209 135.707 66.929L135.552 66.9118C135.315 67.3489 134.996 67.6763 134.596 67.8938C134.194 68.1048 133.688 68.2125 133.081 68.2125ZM133.348 67.2391C133.813 67.2391 134.213 67.1336 134.553 66.9204C134.891 66.7029 135.149 66.4014 135.328 66.0159C135.511 65.6326 135.603 65.1846 135.603 64.6721V63.6212L135.457 63.5867C135.272 63.7203 135.046 63.8322 134.777 63.9227C134.512 64.0088 134.142 64.0864 133.666 64.1553C133.184 64.2199 132.799 64.3189 132.513 64.4568C132.231 64.5946 132.031 64.7669 131.91 64.9736C131.79 65.1803 131.729 65.4388 131.729 65.7489C131.729 66.2312 131.872 66.6017 132.16 66.8601C132.446 67.1142 132.842 67.2391 133.348 67.2391Z" fill="white"/>
<path d="M143.759 66.7398L144.155 67.6185C143.959 67.8144 143.701 67.9609 143.381 68.0578C143.064 68.1611 142.72 68.2128 142.348 68.2128C140.764 68.2128 139.972 67.4117 139.972 65.8095V60.7531H138.525V59.7452H139.972V57.988L141.194 57.7812V59.7452H143.871V60.7531H141.194V65.6889C141.194 66.6429 141.607 67.1188 142.434 67.1188C142.886 67.1188 143.277 66.9939 143.604 66.7398H143.759Z" fill="white"/>
<path d="M152.284 64.1897H146.576C146.611 65.1954 146.852 65.9362 147.3 66.4121C147.751 66.8838 148.369 67.1185 149.15 67.1185C149.746 67.1185 150.222 67.013 150.579 66.7998C150.941 66.5887 151.225 66.2571 151.432 65.8092H151.595L152.387 66.2829C152.146 66.8859 151.761 67.3597 151.234 67.7042C150.704 68.0445 150.011 68.2125 149.15 68.2125C148.345 68.2125 147.655 68.0553 147.076 67.7387C146.501 67.4243 146.06 66.9441 145.75 66.3002C145.44 65.6584 145.285 64.8595 145.285 63.9055C145.285 62.9644 145.449 62.1697 145.776 61.5194C146.103 60.8712 146.551 60.3888 147.119 60.0722C147.691 59.7514 148.345 59.5898 149.081 59.5898C150.142 59.5898 150.971 59.8913 151.569 60.4943C152.165 61.093 152.467 61.9824 152.473 63.1647C152.473 63.6255 152.46 63.9356 152.439 64.095L152.284 64.1897ZM151.259 63.1647C151.242 62.2817 151.046 61.6378 150.674 61.2351C150.3 60.8346 149.77 60.6321 149.081 60.6321C148.352 60.6321 147.777 60.8367 147.36 61.2437C146.947 61.6464 146.697 62.286 146.611 63.1647H151.259Z" fill="white"/>
<path d="M154.672 68.0572V59.7447H155.834V61.054L155.998 61.0885C156.381 60.1474 157.108 59.6758 158.175 59.6758C158.744 59.6758 159.168 59.7791 159.45 59.9859L159.131 61.0196L158.985 61.054C158.675 60.899 158.333 60.8214 157.96 60.8214C157.3 60.8214 156.79 61.0713 156.428 61.5709C156.071 62.0662 155.894 62.8694 155.894 63.9828V68.0572H154.672Z" fill="white"/>
<path d="M160.029 68.1347C159.741 68.1347 159.515 68.055 159.349 67.8935C159.188 67.7341 159.108 67.5188 159.108 67.2474C159.108 66.989 159.188 66.778 159.349 66.61C159.515 66.4377 159.741 66.3516 160.029 66.3516C160.322 66.3516 160.55 66.4334 160.718 66.5928C160.884 66.7543 160.968 66.9696 160.968 67.2388C160.968 67.5037 160.882 67.719 160.71 67.8849C160.542 68.0528 160.316 68.1347 160.029 68.1347Z" fill="white"/>
<path d="M193.139 42.6289H195.616V45.1097H193.139M198.095 42.6289H200.572V45.1097H198.095M203.051 42.6289H205.528V45.1097H203.051M208.008 42.6289H210.487V45.1097H208.008M212.964 42.6289H215.443V45.1097H212.964M217.92 42.6289H220.399V45.1097H217.92M222.876 42.6289H225.356V45.1097H222.876M227.833 42.6289H230.312V45.1097H227.833M232.791 42.6289H235.268V45.1097H232.791M237.747 42.6289H240.224V45.1097H237.747M242.704 42.6289H245.181V45.1097H242.704M247.66 42.6289H250.137V45.1097H247.66M252.616 42.6289H255.093V45.1097H252.616M257.573 42.6289H260.052V45.1097H257.573M262.529 42.6289H265.008V45.1097H262.529M267.485 42.6289H269.964V45.1097H267.485M272.441 42.6289H274.921V45.1097H272.441M277.398 42.6289H279.877V45.1097H277.398M282.356 42.6289H284.833V45.1097H282.356M287.312 42.6289H289.789V45.1097H287.312M292.269 42.6289H294.746V45.1097H292.269M297.225 42.6289H299.702V45.1097H297.225M302.181 42.6289H304.66V45.1097H302.181M307.137 42.6289H309.617V45.1097H307.137M312.094 42.6289H314.573V45.1097H312.094M317.05 42.6289H319.529V45.1097H317.05M322.006 42.6289H324.486V45.1097H322.006M326.965 42.6289H329.442V45.1097H326.965M331.921 42.6289H334.398V45.1097H331.921M336.877 42.6289H339.354V45.1097H336.877M341.834 42.6289H344.311V45.1097H341.834M346.79 42.6289H349.269V45.1097H346.79M351.746 42.6289H354.225V45.1097H351.746M356.702 42.6289H359.182V45.1097H356.702M361.659 42.6289H364.138V45.1097H361.659M366.615 42.6289H369.094V45.1097H366.615M371.573 42.6289H374.051V45.1097H371.573M376.53 42.6289H379.007V45.1097H376.53M381.486 42.6289H383.963V45.1097H381.486M386.442 42.6289H388.919V45.1097H386.442M391.399 42.6289H393.878V45.1097H391.399M396.355 42.6289H398.834V45.1097H396.355" fill="white"/>
<path d="M394.892 40.1484L399.848 43.8675L394.892 47.5866" fill="white"/>
<path d="M445.791 35.912C444.999 35.912 444.296 35.8129 443.682 35.6191C443.067 35.4253 442.554 35.169 442.141 34.8525C441.728 34.538 441.412 34.187 441.194 33.8015L442.434 32.2941H442.632C442.976 32.8066 443.411 33.2136 443.94 33.5173C444.468 33.8166 445.085 33.9652 445.791 33.9652C446.394 33.9652 446.846 33.8403 447.151 33.5862C447.461 33.3278 447.616 32.9746 447.616 32.5267C447.616 32.2575 447.565 32.0314 447.461 31.8462C447.362 31.6631 447.199 31.5081 446.971 31.381C446.747 31.2496 446.439 31.1377 446.049 31.0451L444.586 30.7091C443.557 30.4744 442.791 30.0867 442.288 29.5462C441.788 29.0014 441.539 28.295 441.539 27.4272C441.539 26.779 441.698 26.2104 442.021 25.7216C442.348 25.2349 442.817 24.8559 443.433 24.5845C444.046 24.3154 444.784 24.1797 445.645 24.1797C446.523 24.1797 447.274 24.296 447.9 24.5242C448.524 24.7547 449.054 25.11 449.484 25.5924L448.374 27.1171H448.176C447.853 26.779 447.483 26.527 447.065 26.359C446.652 26.1868 446.179 26.1006 445.645 26.1006C445.025 26.1006 444.554 26.2126 444.233 26.4366C443.91 26.6562 443.751 26.9577 443.751 27.341C443.751 27.6985 443.863 27.9828 444.087 28.1938C444.311 28.407 444.7 28.5728 445.257 28.6934L446.755 29.0035C447.862 29.2404 448.666 29.6388 449.166 30.2009C449.665 30.7586 449.915 31.4887 449.915 32.3888C449.915 33.1017 449.76 33.7219 449.45 34.2495C449.144 34.7792 448.684 35.1884 448.064 35.4813C447.448 35.7677 446.691 35.912 445.791 35.912Z" fill="white"/>
<path d="M455.54 35.9093C454.707 35.9093 453.973 35.737 453.336 35.3925C452.699 35.0479 452.2 34.5397 451.838 33.8678C451.481 33.1959 451.305 32.3905 451.305 31.4472C451.305 30.4997 451.481 29.69 451.838 29.0181C452.2 28.3462 452.695 27.838 453.328 27.4934C453.965 27.1488 454.69 26.9766 455.506 26.9766C457.318 26.9766 458.48 27.6355 458.992 28.9492L457.511 30.0087H457.348C457.169 29.6081 456.937 29.3088 456.651 29.1128C456.369 28.9126 455.988 28.8113 455.506 28.8113C454.879 28.8113 454.391 29.0267 454.042 29.4574C453.698 29.8881 453.526 30.5514 453.526 31.4472C453.526 32.3323 453.7 32.9935 454.051 33.4285C454.406 33.8592 454.903 34.0745 455.54 34.0745C456.009 34.0745 456.405 33.9496 456.728 33.6955C457.055 33.4435 457.29 33.0817 457.434 32.6101L457.597 32.5929L459.13 33.4371C458.91 34.1671 458.506 34.7615 457.916 35.2202C457.324 35.681 456.532 35.9093 455.54 35.9093Z" fill="white"/>
<path d="M464.397 35.9093C463.553 35.9093 462.813 35.737 462.176 35.3925C461.539 35.0479 461.044 34.544 460.695 33.8764C460.344 33.2045 460.17 32.3948 460.17 31.4472C460.17 30.4997 460.344 29.69 460.695 29.0181C461.044 28.3462 461.539 27.838 462.176 27.4934C462.813 27.1488 463.553 26.9766 464.397 26.9766C465.234 26.9766 465.972 27.1488 466.609 27.4934C467.246 27.838 467.739 28.3462 468.09 29.0181C468.445 29.69 468.623 30.4997 468.623 31.4472C468.623 32.3948 468.445 33.2045 468.09 33.8764C467.739 34.544 467.246 35.0479 466.609 35.3925C465.972 35.737 465.234 35.9093 464.397 35.9093ZM464.397 34.0745C465.727 34.0745 466.394 33.2002 466.394 31.4472C466.394 30.5342 466.222 29.8687 465.877 29.4488C465.537 29.0245 465.044 28.8113 464.397 28.8113C463.058 28.8113 462.391 29.69 462.391 31.4472C462.391 33.2002 463.058 34.0745 464.397 34.0745Z" fill="white"/>
<path d="M470.629 35.7454V27.14H472.729V28.4149L472.893 28.4494C473.1 27.9734 473.371 27.6224 473.711 27.3984C474.049 27.1745 474.46 27.0625 474.942 27.0625C475.428 27.0625 475.798 27.1465 476.052 27.3123L475.691 29.1729L475.527 29.2074C475.383 29.1514 475.245 29.1105 475.114 29.0868C474.987 29.0588 474.83 29.0437 474.64 29.0437C474.038 29.0437 473.577 29.2569 473.263 29.6812C472.947 30.1076 472.79 30.7881 472.79 31.7227V35.7454H470.629Z" fill="white"/>
<path d="M484.403 31.9296H478.877C478.939 32.6833 479.152 33.2282 479.514 33.5663C479.88 33.9065 480.377 34.0745 481.003 34.0745C481.496 34.0745 481.894 33.9841 482.2 33.7989C482.51 33.6158 482.759 33.338 482.949 32.9633H483.112L484.55 33.885C484.268 34.488 483.844 34.9768 483.276 35.3494C482.708 35.7241 481.95 35.9093 481.003 35.9093C480.112 35.9093 479.344 35.7413 478.696 35.4011C478.053 35.063 477.555 34.5612 477.207 33.8936C476.856 33.2217 476.682 32.4077 476.682 31.4472C476.682 30.4717 476.865 29.6469 477.233 28.975C477.598 28.3031 478.096 27.8035 478.722 27.4762C479.352 27.1445 480.06 26.9766 480.848 26.9766C482.064 26.9766 482.996 27.3017 483.646 27.9499C484.294 28.5938 484.619 29.5392 484.619 30.784C484.619 31.2383 484.601 31.5894 484.567 31.8349L484.403 31.9296ZM482.553 30.5342C482.529 29.8795 482.374 29.4036 482.088 29.1042C481.806 28.807 481.393 28.6563 480.848 28.6563C479.757 28.6563 479.118 29.283 478.928 30.5342H482.553Z" fill="white"/>
<path d="M487.45 35.8151C487.174 35.8151 486.929 35.7591 486.718 35.6515C486.511 35.5373 486.35 35.3823 486.236 35.1863C486.126 34.986 486.072 34.7621 486.072 34.5144C486.072 34.2625 486.126 34.0385 486.236 33.8425C486.35 33.6487 486.511 33.4937 486.718 33.3774C486.929 33.2632 487.174 33.2051 487.45 33.2051C487.729 33.2051 487.977 33.2632 488.19 33.3774C488.401 33.4872 488.562 33.6423 488.672 33.8425C488.786 34.0385 488.844 34.2603 488.844 34.5058C488.844 34.8848 488.717 35.1992 488.465 35.4447C488.211 35.6924 487.874 35.8151 487.45 35.8151ZM487.45 29.6647C487.174 29.6647 486.929 29.6109 486.718 29.5011C486.511 29.3869 486.35 29.2319 486.236 29.0359C486.126 28.8356 486.072 28.6117 486.072 28.364C486.072 28.1121 486.126 27.8881 486.236 27.6921C486.35 27.4983 486.511 27.3433 486.718 27.227C486.929 27.1128 487.174 27.0547 487.45 27.0547C487.729 27.0547 487.977 27.1128 488.19 27.227C488.401 27.3368 488.562 27.4918 488.672 27.6921C488.786 27.8881 488.844 28.1099 488.844 28.3554C488.844 28.7344 488.717 29.0488 488.465 29.2943C488.211 29.542 487.874 29.6647 487.45 29.6647Z" fill="white"/>
<path d="M495.148 35.7448V24.3398H499.289C500.051 24.3398 500.692 24.4669 501.209 24.7189C501.73 24.973 502.121 25.3283 502.379 25.787C502.642 26.2478 502.775 26.7927 502.775 27.4237C502.775 28.13 502.597 28.7136 502.242 29.1723C501.891 29.6332 501.34 29.9777 500.589 30.206V30.3697C500.961 30.5139 501.263 30.7444 501.493 31.0588C501.727 31.3689 501.945 31.834 502.147 32.4542L503.197 35.7448H501.82L500.675 32.2561C500.542 31.8491 500.387 31.5282 500.21 31.2914C500.032 31.0566 499.808 30.8865 499.539 30.7831C499.268 30.6798 498.928 30.6281 498.514 30.6281H496.491V35.7448H495.148ZM499.263 29.491C499.973 29.491 500.503 29.3274 500.847 29C501.196 28.6684 501.372 28.1623 501.372 27.484C501.372 26.8078 501.196 26.3038 500.847 25.9765C500.503 25.6449 499.973 25.4769 499.263 25.4769H496.491V29.491H499.263Z" fill="white"/>
<path d="M511.952 31.7315H506.038C506.077 32.7781 506.331 33.5469 506.796 34.0401C507.261 34.5289 507.898 34.7722 508.707 34.7722C509.32 34.7722 509.813 34.6646 510.188 34.4449C510.56 34.2274 510.855 33.8828 511.074 33.4112H511.238L512.064 33.9022C511.81 34.5289 511.41 35.0199 510.859 35.3752C510.312 35.7327 509.596 35.9093 508.707 35.9093C507.874 35.9093 507.16 35.7456 506.564 35.4183C505.965 35.091 505.507 34.5957 505.186 33.9281C504.863 33.2626 504.704 32.4357 504.704 31.4472C504.704 30.4717 504.872 29.6469 505.212 28.975C505.55 28.3031 506.015 27.8035 506.607 27.4762C507.196 27.1445 507.872 26.9766 508.63 26.9766C509.731 26.9766 510.592 27.2867 511.212 27.9069C511.832 28.5271 512.144 29.4488 512.15 30.672C512.15 31.1544 512.137 31.4795 512.116 31.6454L511.952 31.7315ZM510.894 30.672C510.87 29.7589 510.665 29.0956 510.282 28.6821C509.897 28.2644 509.346 28.0533 508.63 28.0533C507.876 28.0533 507.287 28.2644 506.856 28.6821C506.426 29.1021 506.163 29.7653 506.073 30.672H510.894Z" fill="white"/>
<path d="M516.851 35.9093C516.304 35.9093 515.803 35.8361 515.344 35.6939C514.884 35.5518 514.496 35.3558 514.182 35.1082C513.866 34.8562 513.642 34.5741 513.511 34.264L514.26 33.4801H514.423C514.703 33.9108 515.039 34.236 515.43 34.4535C515.826 34.6667 516.3 34.7722 516.851 34.7722C517.481 34.7722 517.961 34.6495 518.288 34.4018C518.62 34.1563 518.788 33.8118 518.788 33.3682C518.788 33.0301 518.687 32.7523 518.486 32.5326C518.284 32.3086 517.961 32.1428 517.514 32.033L516.067 31.6712C515.293 31.4882 514.727 31.1931 514.372 30.784C514.014 30.3769 513.838 29.8752 513.838 29.2765C513.838 28.8113 513.954 28.4065 514.191 28.0619C514.432 27.7131 514.776 27.446 515.224 27.2608C515.676 27.0713 516.214 26.9766 516.834 26.9766C517.619 26.9766 518.239 27.0885 518.693 27.3125C519.151 27.5322 519.506 27.838 519.76 28.2342L519.046 28.9319H518.891C518.616 28.6175 518.314 28.3893 517.987 28.2514C517.664 28.1093 517.281 28.0361 516.834 28.0361C516.265 28.0361 515.829 28.1395 515.525 28.3462C515.226 28.5486 515.077 28.8415 515.077 29.2248C515.077 29.5694 515.183 29.8515 515.396 30.069C515.607 30.2822 515.981 30.4523 516.515 30.5772L517.935 30.9218C518.687 31.1005 519.229 31.3956 519.562 31.809C519.894 32.2182 520.062 32.7307 520.062 33.3509C520.062 33.857 519.941 34.3028 519.7 34.6861C519.459 35.0716 519.098 35.3731 518.616 35.5906C518.133 35.8016 517.544 35.9093 516.851 35.9093Z" fill="white"/>
<path d="M523.012 25.4792C522.741 25.4792 522.521 25.3974 522.349 25.2294C522.181 25.0571 522.1 24.8418 522.1 24.5834C522.1 24.3249 522.181 24.1139 522.349 23.9459C522.521 23.7736 522.741 23.6875 523.012 23.6875C523.281 23.6875 523.498 23.7736 523.666 23.9459C523.839 24.1139 523.925 24.3249 523.925 24.5834C523.925 24.8418 523.839 25.0571 523.666 25.2294C523.498 25.3974 523.281 25.4792 523.012 25.4792ZM522.375 35.7471V27.1417H523.649V35.7471H522.375Z" fill="white"/>
<path d="M528.568 35.9108C527.959 35.9108 527.479 35.7385 527.131 35.3939C526.78 35.0494 526.605 34.5325 526.605 33.8434V23.6875H527.88V33.7573C527.88 34.1191 527.948 34.3818 528.086 34.5412C528.224 34.6962 528.439 34.7737 528.732 34.7737C528.904 34.7737 529.08 34.7457 529.265 34.6876L529.377 34.7134L529.524 35.7127C529.431 35.7751 529.296 35.8246 529.119 35.8591C528.947 35.8936 528.762 35.9108 528.568 35.9108Z" fill="white"/>
<path d="M531.954 25.4792C531.683 25.4792 531.464 25.3974 531.292 25.2294C531.124 25.0571 531.042 24.8418 531.042 24.5834C531.042 24.3249 531.124 24.1139 531.292 23.9459C531.464 23.7736 531.683 23.6875 531.954 23.6875C532.223 23.6875 532.441 23.7736 532.609 23.9459C532.781 24.1139 532.867 24.3249 532.867 24.5834C532.867 24.8418 532.781 25.0571 532.609 25.2294C532.441 25.3974 532.223 25.4792 531.954 25.4792ZM531.317 35.7471V27.1417H532.592V35.7471H531.317Z" fill="white"/>
<path d="M542.28 31.7315H536.366C536.404 32.7781 536.658 33.5469 537.123 34.0401C537.588 34.5289 538.225 34.7722 539.034 34.7722C539.648 34.7722 540.14 34.6646 540.515 34.4449C540.887 34.2274 541.182 33.8828 541.401 33.4112H541.565L542.391 33.9022C542.137 34.5289 541.737 35.0199 541.186 35.3752C540.64 35.7327 539.923 35.9093 539.034 35.9093C538.201 35.9093 537.487 35.7456 536.891 35.4183C536.292 35.091 535.834 34.5957 535.513 33.9281C535.191 33.2626 535.031 32.4357 535.031 31.4472C535.031 30.4717 535.199 29.6469 535.539 28.975C535.877 28.3031 536.342 27.8035 536.934 27.4762C537.523 27.1445 538.199 26.9766 538.957 26.9766C540.059 26.9766 540.919 27.2867 541.539 27.9069C542.159 28.5271 542.471 29.4488 542.478 30.672C542.478 31.1544 542.465 31.4795 542.443 31.6454L542.28 31.7315ZM541.221 30.672C541.197 29.7589 540.993 29.0956 540.609 28.6821C540.224 28.2644 539.673 28.0533 538.957 28.0533C538.203 28.0533 537.614 28.2644 537.183 28.6821C536.753 29.1021 536.49 29.7653 536.4 30.672H541.221Z" fill="white"/>
<path d="M544.751 35.7456V27.1402H545.956V28.4926L546.12 28.5271C546.406 28.0232 546.77 27.6377 547.213 27.3728C547.661 27.1101 548.203 26.9766 548.84 26.9766C549.877 26.9766 550.631 27.2414 551.095 27.7691C551.56 28.2988 551.793 29.1107 551.793 30.2068V35.7456H550.519V30.2413C550.519 29.7201 550.452 29.3002 550.321 28.9836C550.187 28.6692 549.981 28.4409 549.701 28.3031C549.425 28.161 549.059 28.0878 548.608 28.0878C547.833 28.0878 547.207 28.344 546.731 28.8544C546.26 29.367 546.025 30.1896 546.025 31.3266V35.7456H544.751Z" fill="white"/>
<path d="M558.086 35.9093C557.329 35.9093 556.649 35.737 556.046 35.3925C555.443 35.0479 554.966 34.5397 554.617 33.8678C554.273 33.1916 554.101 32.384 554.101 31.4472C554.101 30.5062 554.273 29.6986 554.617 29.0267C554.966 28.3505 555.443 27.838 556.046 27.4934C556.649 27.1488 557.329 26.9766 558.086 26.9766C558.999 26.9766 559.722 27.1488 560.256 27.4934C560.794 27.8337 561.185 28.2902 561.426 28.863L560.557 29.4919H560.402C560.172 29.0159 559.873 28.6692 559.507 28.4496C559.139 28.2256 558.665 28.1136 558.086 28.1136C557.557 28.1136 557.092 28.2407 556.692 28.4926C556.289 28.7403 555.977 29.1128 555.753 29.6125C555.534 30.1121 555.426 30.7237 555.426 31.4472C555.426 32.1665 555.538 32.7738 555.762 33.2734C555.986 33.7687 556.296 34.1413 556.692 34.3932C557.092 34.6473 557.557 34.7722 558.086 34.7722C558.689 34.7722 559.184 34.6387 559.576 34.3674C559.965 34.0982 560.273 33.6697 560.497 33.0839H560.66L561.495 33.5749C561.271 34.2985 560.871 34.8713 560.299 35.2891C559.724 35.7026 558.986 35.9093 558.086 35.9093Z" fill="white"/>
<path d="M570.213 31.7315H564.299C564.338 32.7781 564.592 33.5469 565.057 34.0401C565.522 34.5289 566.159 34.7722 566.968 34.7722C567.581 34.7722 568.074 34.6646 568.448 34.4449C568.821 34.2274 569.116 33.8828 569.335 33.4112H569.499L570.325 33.9022C570.071 34.5289 569.671 35.0199 569.12 35.3752C568.573 35.7327 567.857 35.9093 566.968 35.9093C566.135 35.9093 565.42 35.7456 564.824 35.4183C564.226 35.091 563.768 34.5957 563.447 33.9281C563.124 33.2626 562.965 32.4357 562.965 31.4472C562.965 30.4717 563.133 29.6469 563.473 28.975C563.811 28.3031 564.275 27.8035 564.867 27.4762C565.457 27.1445 566.133 26.9766 566.89 26.9766C567.992 26.9766 568.853 27.2867 569.473 27.9069C570.093 28.5271 570.405 29.4488 570.411 30.672C570.411 31.1544 570.398 31.4795 570.377 31.6454L570.213 31.7315ZM569.154 30.672C569.131 29.7589 568.926 29.0956 568.543 28.6821C568.158 28.2644 567.607 28.0533 566.89 28.0533C566.137 28.0533 565.547 28.2644 565.117 28.6821C564.687 29.1021 564.424 29.7653 564.334 30.672H569.154Z" fill="white"/>
<path d="M573.287 35.8246C572.988 35.8246 572.754 35.7427 572.581 35.5748C572.409 35.4089 572.323 35.1871 572.323 34.9115C572.323 34.6423 572.409 34.4205 572.581 34.2482C572.754 34.0716 572.988 33.9812 573.287 33.9812C573.584 33.9812 573.821 34.0651 573.993 34.231C574.165 34.3989 574.252 34.6186 574.252 34.8942C574.252 35.1699 574.161 35.3939 573.985 35.5661C573.812 35.7384 573.58 35.8246 573.287 35.8246ZM573.287 28.8903C572.988 28.8903 572.754 28.8084 572.581 28.6405C572.409 28.4746 572.323 28.2528 572.323 27.9772C572.323 27.708 572.409 27.4862 572.581 27.3139C572.754 27.1373 572.988 27.0469 573.287 27.0469C573.584 27.0469 573.821 27.1309 573.993 27.2967C574.165 27.4647 574.252 27.6843 574.252 27.96C574.252 28.2356 574.161 28.4596 573.985 28.6319C573.812 28.8041 573.58 28.8903 573.287 28.8903Z" fill="white"/>
<path d="M586.439 35.7448H585.165V33.0228H579.828V31.946L584.855 24.3398H586.439V31.946H588.411V33.0228H586.439V35.7448ZM581.403 31.7824L581.472 31.946H585.165V26.1919L584.985 26.166L581.403 31.7824Z" fill="white"/>
<path d="M446.553 46.6602C447.339 46.6602 448.01 46.8023 448.567 47.0822C449.129 47.3644 449.557 47.7671 449.85 48.2882C450.147 48.8115 450.298 49.4253 450.298 50.1316C450.298 50.838 450.147 51.4539 449.85 51.975C449.557 52.4918 449.129 52.8945 448.567 53.181C448.01 53.4631 447.339 53.6031 446.553 53.6031H443.816V58.0651H442.473V46.6602H446.553ZM446.51 52.4574C448.098 52.4574 448.895 51.6821 448.895 50.1316C448.895 48.5768 448.098 47.7972 446.51 47.7972H443.816V52.4574H446.51Z" fill="white"/>
<path d="M452.415 58.0657V49.4603H453.62V50.8127L453.784 50.8472C454.184 49.8717 454.939 49.3828 456.048 49.3828C456.633 49.3828 457.072 49.4905 457.365 49.7015L457.038 50.7783L456.883 50.8127C456.56 50.6534 456.207 50.5715 455.824 50.5715C455.135 50.5715 454.606 50.83 454.24 51.3468C453.872 51.8593 453.689 52.6906 453.689 53.8449V58.0657H452.415Z" fill="white"/>
<path d="M462.266 58.2296C461.457 58.2296 460.751 58.0573 460.148 57.7128C459.55 57.3682 459.089 56.8643 458.762 56.1967C458.44 55.5313 458.28 54.7216 458.28 53.7675C458.28 52.8157 458.44 52.0017 458.762 51.3298C459.089 50.6579 459.55 50.154 460.148 49.8137C460.751 49.4692 461.457 49.2969 462.266 49.2969C463.079 49.2969 463.785 49.4692 464.384 49.8137C464.986 50.154 465.447 50.6579 465.77 51.3298C466.097 52.0017 466.26 52.8157 466.26 53.7675C466.26 54.7216 466.097 55.5313 465.77 56.1967C465.447 56.8643 464.986 57.3682 464.384 57.7128C463.785 58.0573 463.079 58.2296 462.266 58.2296ZM462.266 57.0926C463.127 57.0926 463.783 56.8234 464.237 56.2828C464.689 55.738 464.917 54.9003 464.917 53.7675C464.917 52.6305 464.689 51.7928 464.237 51.2523C463.783 50.7074 463.127 50.4339 462.266 50.4339C461.409 50.4339 460.753 50.7074 460.295 51.2523C459.834 51.7928 459.606 52.6305 459.606 53.7675C459.606 54.9003 459.834 55.738 460.295 56.2828C460.753 56.8234 461.409 57.0926 462.266 57.0926Z" fill="white"/>
<path d="M472.919 58.2311C472.282 58.2311 471.727 58.1062 471.258 57.8607C470.787 57.6152 470.414 57.2879 470.139 56.8787L469.975 56.9132V58.0674H468.701V46.0078H469.975V50.7455L470.139 50.78C470.793 49.7937 471.742 49.2984 472.988 49.2984C473.694 49.2984 474.31 49.462 474.839 49.7894C475.373 50.1167 475.786 50.6163 476.079 51.2882C476.371 51.9558 476.518 52.7827 476.518 53.769C476.518 54.7467 476.363 55.5694 476.053 56.2413C475.747 56.9088 475.323 57.4085 474.779 57.7401C474.239 58.0674 473.619 58.2311 472.919 58.2311ZM472.618 57.094C474.333 57.094 475.192 55.9871 475.192 53.769C475.192 52.6212 474.968 51.7792 474.52 51.2451C474.073 50.7068 473.438 50.4354 472.618 50.4354C471.809 50.4354 471.165 50.7111 470.69 51.2624C470.212 51.8094 469.975 52.6449 469.975 53.769C469.975 54.8889 470.212 55.7244 470.69 56.2757C471.165 56.8227 471.809 57.094 472.618 57.094Z" fill="white"/>
<path d="M480.889 58.2311C480.28 58.2311 479.801 58.0588 479.452 57.7143C479.101 57.3697 478.927 56.8529 478.927 56.1637V46.0078H480.201V56.0776C480.201 56.4394 480.27 56.7021 480.407 56.8615C480.545 57.0165 480.76 57.094 481.053 57.094C481.225 57.094 481.402 57.0661 481.587 57.0079L481.699 57.0338L481.845 58.033C481.752 58.0954 481.617 58.145 481.44 58.1794C481.268 58.2139 481.083 58.2311 480.889 58.2311Z" fill="white"/>
<path d="M490.336 54.0518H484.422C484.461 55.0984 484.715 55.8672 485.18 56.3604C485.645 56.8492 486.282 57.0926 487.091 57.0926C487.704 57.0926 488.197 56.9849 488.571 56.7652C488.944 56.5477 489.239 56.2032 489.458 55.7315H489.622L490.448 56.2225C490.194 56.8492 489.794 57.3402 489.243 57.6955C488.696 58.053 487.98 58.2296 487.091 58.2296C486.258 58.2296 485.543 58.0659 484.947 57.7386C484.349 57.4113 483.891 56.916 483.57 56.2484C483.247 55.583 483.088 54.756 483.088 53.7675C483.088 52.792 483.256 51.9672 483.596 51.2953C483.934 50.6234 484.399 50.1238 484.99 49.7965C485.58 49.4648 486.256 49.2969 487.013 49.2969C488.115 49.2969 488.976 49.607 489.596 50.2272C490.216 50.8474 490.528 51.7691 490.534 52.9923C490.534 53.4747 490.521 53.7999 490.5 53.9657L490.336 54.0518ZM489.277 52.9923C489.254 52.0792 489.049 51.4159 488.666 51.0024C488.281 50.5847 487.73 50.3736 487.013 50.3736C486.26 50.3736 485.67 50.5847 485.24 51.0024C484.81 51.4224 484.547 52.0857 484.457 52.9923H489.277Z" fill="white"/>
<path d="M492.808 58.0659V49.4605H494.013V50.7354L494.176 50.7613C494.469 50.2789 494.822 49.9149 495.235 49.6673C495.648 49.4218 496.143 49.2969 496.724 49.2969C497.389 49.2969 497.904 49.4239 498.265 49.6759C498.627 49.93 498.911 50.337 499.118 50.8991H499.281C499.574 50.3715 499.938 49.9731 500.374 49.7017C500.809 49.4325 501.343 49.2969 501.976 49.2969C502.858 49.2969 503.516 49.5381 503.947 50.0205C504.382 50.4985 504.601 51.2243 504.601 52.1998V58.0659H503.336V52.2256C503.336 51.6054 503.202 51.1489 502.94 50.856C502.675 50.5588 502.253 50.4081 501.674 50.4081C500.986 50.4081 500.422 50.6579 499.987 51.1575C499.557 51.6528 499.341 52.4733 499.341 53.6211V58.0659H498.067V52.2256C498.067 51.6054 497.934 51.1489 497.671 50.856C497.413 50.5588 496.991 50.4081 496.406 50.4081C495.722 50.4081 495.162 50.6493 494.727 51.1317C494.297 51.614 494.082 52.3979 494.082 53.4833V58.0659H492.808Z" fill="white"/>
<path d="M511.217 53.0941H506.775V51.957H511.217V53.0941Z" fill="white"/>
<path d="M516.838 58.2284C516.119 58.2284 515.473 58.1293 514.901 57.9355C514.333 57.7417 513.859 57.4854 513.48 57.1689C513.102 56.8544 512.82 56.5034 512.637 56.1179L513.368 55.2307H513.558C514.268 56.4259 515.361 57.0224 516.838 57.0224C517.692 57.0224 518.329 56.8458 518.749 56.4884C519.166 56.1266 519.377 55.6248 519.377 54.9809C519.377 54.6083 519.308 54.2918 519.17 54.0334C519.033 53.7706 518.805 53.5467 518.49 53.3615C518.174 53.1784 517.741 53.0212 517.191 52.8877L515.865 52.5604C514.871 52.3192 514.139 51.938 513.67 51.4147C513.198 50.8935 512.964 50.2303 512.964 49.4249C512.964 48.8628 513.106 48.361 513.394 47.9174C513.687 47.4695 514.113 47.1228 514.677 46.8751C515.239 46.6232 515.91 46.4961 516.691 46.4961C517.546 46.4961 518.269 46.6167 518.861 46.8579C519.45 47.0991 519.922 47.4609 520.272 47.9432L519.618 48.8305H519.42C519.093 48.4299 518.706 48.1371 518.258 47.9519C517.815 47.7624 517.294 47.6676 516.691 47.6676C515.899 47.6676 515.301 47.8205 514.901 48.1241C514.498 48.4299 514.298 48.8542 514.298 49.399C514.298 49.9116 514.444 50.3186 514.737 50.6222C515.034 50.928 515.533 51.1627 516.235 51.3286L517.604 51.6559C518.706 51.9208 519.502 52.3235 519.997 52.8619C520.496 53.3959 520.746 54.0829 520.746 54.9206C520.746 55.5645 520.602 56.1352 520.315 56.6348C520.027 57.1301 519.588 57.5199 518.998 57.8063C518.413 58.0863 517.692 58.2284 516.838 58.2284Z" fill="white"/>
<path d="M526.554 58.2296C525.745 58.2296 525.039 58.0573 524.436 57.7128C523.838 57.3682 523.378 56.8643 523.05 56.1967C522.728 55.5313 522.568 54.7216 522.568 53.7675C522.568 52.8157 522.728 52.0017 523.05 51.3298C523.378 50.6579 523.838 50.154 524.436 49.8137C525.039 49.4692 525.745 49.2969 526.554 49.2969C527.368 49.2969 528.073 49.4692 528.672 49.8137C529.274 50.154 529.735 50.6579 530.058 51.3298C530.385 52.0017 530.548 52.8157 530.548 53.7675C530.548 54.7216 530.385 55.5313 530.058 56.1967C529.735 56.8643 529.274 57.3682 528.672 57.7128C528.073 58.0573 527.368 58.2296 526.554 58.2296ZM526.554 57.0926C527.415 57.0926 528.071 56.8234 528.525 56.2828C528.977 55.738 529.205 54.9003 529.205 53.7675C529.205 52.6305 528.977 51.7928 528.525 51.2523C528.071 50.7074 527.415 50.4339 526.554 50.4339C525.698 50.4339 525.041 50.7074 524.583 51.2523C524.122 51.7928 523.894 52.6305 523.894 53.7675C523.894 54.9003 524.122 55.738 524.583 56.2828C525.041 56.8234 525.698 57.0926 526.554 57.0926Z" fill="white"/>
<path d="M534.918 58.2311C534.309 58.2311 533.829 58.0588 533.48 57.7143C533.129 57.3697 532.955 56.8529 532.955 56.1637V46.0078H534.229V56.0776C534.229 56.4394 534.298 56.7021 534.436 56.8615C534.573 57.0165 534.789 57.094 535.081 57.094C535.254 57.094 535.43 57.0661 535.615 57.0079L535.727 57.0338L535.873 58.033C535.781 58.0954 535.645 58.145 535.469 58.1794C535.297 58.2139 535.111 58.2311 534.918 58.2311Z" fill="white"/>
<path d="M541.61 58.0663H539.862L536.591 49.4609H537.96L540.671 56.6192H540.843L543.529 49.4609H544.872L541.61 58.0663Z" fill="white"/>
<path d="M547.418 47.7995C547.147 47.7995 546.928 47.7177 546.756 47.5497C546.588 47.3774 546.506 47.1621 546.506 46.9037C546.506 46.6452 546.588 46.4342 546.756 46.2662C546.928 46.094 547.147 46.0078 547.418 46.0078C547.687 46.0078 547.905 46.094 548.073 46.2662C548.245 46.4342 548.331 46.6452 548.331 46.9037C548.331 47.1621 548.245 47.3774 548.073 47.5497C547.905 47.7177 547.687 47.7995 547.418 47.7995ZM546.781 58.0674V49.462H548.055V58.0674H546.781Z" fill="white"/>
<path d="M551.046 58.0659V49.4605H552.251V50.8129L552.415 50.8474C552.701 50.3435 553.065 49.958 553.508 49.6931C553.956 49.4304 554.498 49.2969 555.135 49.2969C556.172 49.2969 556.925 49.5618 557.39 50.0894C557.855 50.6191 558.088 51.431 558.088 52.5271V58.0659H556.814V52.5616C556.814 52.0404 556.747 51.6205 556.616 51.3039C556.482 50.9895 556.275 50.7613 555.996 50.6234C555.72 50.4813 555.354 50.4081 554.902 50.4081C554.128 50.4081 553.501 50.6644 553.026 51.1747C552.555 51.6873 552.32 52.5099 552.32 53.647V58.0659H551.046Z" fill="white"/>
<path d="M563.873 61.7192C562.517 61.7192 561.527 61.4909 560.903 61.0387C560.284 60.5843 559.974 59.9835 559.974 59.2384C559.974 58.756 560.116 58.3705 560.404 58.0841C560.697 57.7977 561.121 57.5909 561.678 57.4639V57.3002C561.413 57.1516 561.215 56.9772 561.084 56.7748C560.951 56.568 560.886 56.3247 560.886 56.0426C560.886 55.7109 560.989 55.4396 561.196 55.2329C561.407 55.0261 561.721 54.8689 562.134 54.7591V54.5954C561.198 54.1023 560.731 53.299 560.731 52.1835C560.731 51.6214 560.856 51.1218 561.11 50.6847C561.368 50.2497 561.732 49.9094 562.203 49.6682C562.679 49.4227 563.232 49.2978 563.865 49.2978C564.588 49.2978 565.19 49.4572 565.672 49.7716C565.849 49.5713 565.984 49.3559 566.077 49.1255C566.167 48.8908 566.228 48.6302 566.258 48.3416L566.421 48.2383L567.463 48.4881C567.411 48.9252 567.278 49.2957 567.067 49.5993C566.86 49.8986 566.563 50.1463 566.18 50.3401V50.5038C566.456 50.7234 566.658 50.9818 566.791 51.279C566.923 51.5719 566.989 51.9143 566.989 52.3041C566.989 52.8446 566.856 53.3292 566.593 53.7599C566.335 54.1906 565.967 54.5308 565.492 54.7763C565.02 55.024 564.478 55.1467 563.865 55.1467C563.789 55.1467 563.658 55.1424 563.469 55.1295C563.262 55.1252 563.109 55.1209 563.012 55.1209C562.741 55.1209 562.526 55.1941 562.367 55.3362C562.205 55.4741 562.126 55.6528 562.126 55.8703C562.126 56.1416 562.212 56.3398 562.384 56.4647C562.556 56.5917 562.842 56.6628 563.245 56.68L565.285 56.7489C566.163 56.7791 566.811 56.9815 567.231 57.3605C567.654 57.7395 567.868 58.2736 567.868 58.9627C567.868 59.4796 567.73 59.9447 567.454 60.3582C567.179 60.7717 566.742 61.1012 566.146 61.3488C565.548 61.5943 564.79 61.7192 563.873 61.7192ZM563.865 54.0527C564.472 54.0527 564.943 53.8955 565.276 53.579C565.608 53.2646 565.776 52.8188 565.776 52.2438C565.776 51.6537 565.608 51.1972 565.276 50.8742C564.949 50.5533 564.478 50.3918 563.865 50.3918C563.249 50.3918 562.78 50.5533 562.453 50.8742C562.13 51.1907 561.971 51.6473 561.971 52.2438C561.971 52.8252 562.13 53.2732 562.453 53.5876C562.78 53.8977 563.249 54.0527 563.865 54.0527ZM563.873 60.6252C564.51 60.6252 565.029 60.552 565.431 60.4099C565.832 60.2721 566.122 60.0869 566.301 59.8586C566.477 59.6282 566.568 59.3697 566.568 59.0833C566.568 58.8249 566.518 58.6182 566.421 58.4631C566.322 58.3081 566.167 58.1896 565.956 58.1099C565.743 58.0367 565.453 57.9872 565.087 57.9635L563.159 57.8688H562.883C561.809 57.886 561.274 58.3038 561.274 59.1264C561.274 60.1256 562.139 60.6252 563.873 60.6252Z" fill="white"/>
<path d="M577.157 58.2284C576.438 58.2284 575.793 58.1293 575.22 57.9355C574.652 57.7417 574.178 57.4854 573.8 57.1689C573.421 56.8544 573.139 56.5034 572.956 56.1179L573.688 55.2307H573.877C574.587 56.4259 575.681 57.0224 577.157 57.0224C578.011 57.0224 578.648 56.8458 579.068 56.4884C579.486 56.1266 579.696 55.6248 579.696 54.9809C579.696 54.6083 579.628 54.2918 579.49 54.0334C579.352 53.7706 579.124 53.5467 578.81 53.3615C578.493 53.1784 578.061 53.0212 577.51 52.8877L576.184 52.5604C575.19 52.3192 574.458 51.938 573.989 51.4147C573.518 50.8935 573.283 50.2303 573.283 49.4249C573.283 48.8628 573.425 48.361 573.714 47.9174C574.006 47.4695 574.432 47.1228 574.996 46.8751C575.558 46.6232 576.229 46.4961 577.011 46.4961C577.865 46.4961 578.588 46.6167 579.18 46.8579C579.77 47.0991 580.241 47.4609 580.592 47.9432L579.937 48.8305H579.739C579.412 48.4299 579.025 48.1371 578.577 47.9519C578.134 47.7624 577.613 47.6676 577.011 47.6676C576.219 47.6676 575.62 47.8205 575.22 48.1241C574.818 48.4299 574.617 48.8542 574.617 49.399C574.617 49.9116 574.764 50.3186 575.057 50.6222C575.353 50.928 575.853 51.1627 576.554 51.3286L577.923 51.6559C579.025 51.9208 579.821 52.3235 580.316 52.8619C580.816 53.3959 581.065 54.0829 581.065 54.9206C581.065 55.5645 580.921 56.1352 580.635 56.6348C580.346 57.1301 579.907 57.5199 579.318 57.8063C578.732 58.0863 578.011 58.2284 577.157 58.2284Z" fill="white"/>
<path d="M583.438 58.0674V46.0078H584.713V53.0541H584.919L588.113 49.462H589.447V49.6429L586.038 53.502L589.774 57.8693V58.0674H588.354L584.919 54.0878H584.713V58.0674H583.438Z" fill="white"/>
<path d="M592.075 47.7995C591.803 47.7995 591.584 47.7177 591.412 47.5497C591.244 47.3774 591.162 47.1621 591.162 46.9037C591.162 46.6452 591.244 46.4342 591.412 46.2662C591.584 46.094 591.803 46.0078 592.075 46.0078C592.344 46.0078 592.561 46.094 592.729 46.2662C592.901 46.4342 592.987 46.6452 592.987 46.9037C592.987 47.1621 592.901 47.3774 592.729 47.5497C592.561 47.7177 592.344 47.7995 592.075 47.7995ZM591.438 58.0674V49.462H592.712V58.0674H591.438Z" fill="white"/>
<path d="M597.631 58.2311C597.022 58.2311 596.542 58.0588 596.193 57.7143C595.842 57.3697 595.668 56.8529 595.668 56.1637V46.0078H596.942V56.0776C596.942 56.4394 597.011 56.7021 597.149 56.8615C597.286 57.0165 597.502 57.094 597.794 57.094C597.966 57.094 598.143 57.0661 598.328 57.0079L598.44 57.0338L598.586 58.033C598.494 58.0954 598.358 58.145 598.182 58.1794C598.009 58.2139 597.824 58.2311 597.631 58.2311Z" fill="white"/>
<path d="M602.308 58.2311C601.699 58.2311 601.219 58.0588 600.871 57.7143C600.52 57.3697 600.346 56.8529 600.346 56.1637V46.0078H601.62V56.0776C601.62 56.4394 601.689 56.7021 601.826 56.8615C601.964 57.0165 602.179 57.094 602.472 57.094C602.644 57.094 602.821 57.0661 603.006 57.0079L603.118 57.0338L603.264 58.033C603.171 58.0954 603.036 58.145 602.859 58.1794C602.687 58.2139 602.502 58.2311 602.308 58.2311Z" fill="white"/>
<path d="M607.486 58.2296C606.939 58.2296 606.437 58.1564 605.979 58.0143C605.519 57.8721 605.131 57.6762 604.817 57.4285C604.501 57.1765 604.277 56.8944 604.146 56.5843L604.894 55.8005H605.058C605.338 56.2312 605.673 56.5563 606.065 56.7738C606.461 56.987 606.935 57.0926 607.486 57.0926C608.116 57.0926 608.596 56.9698 608.923 56.7222C609.255 56.4767 609.422 56.1321 609.422 55.6885C609.422 55.3504 609.321 55.0726 609.121 54.8529C608.919 54.629 608.596 54.4631 608.148 54.3533L606.702 53.9915C605.927 53.8085 605.361 53.5134 605.006 53.1043C604.649 52.6973 604.473 52.1955 604.473 51.5968C604.473 51.1317 604.589 50.7268 604.826 50.3822C605.067 50.0334 605.411 49.7663 605.859 49.5811C606.311 49.3916 606.849 49.2969 607.468 49.2969C608.254 49.2969 608.874 49.4089 609.328 49.6328C609.786 49.8525 610.141 50.1583 610.395 50.5545L609.681 51.2523H609.526C609.25 50.9378 608.949 50.7096 608.622 50.5717C608.299 50.4296 607.916 50.3564 607.468 50.3564C606.9 50.3564 606.463 50.4598 606.16 50.6665C605.861 50.8689 605.712 51.1618 605.712 51.5451C605.712 51.8897 605.818 52.1718 606.031 52.3893C606.242 52.6025 606.616 52.7726 607.15 52.8975L608.57 53.2421C609.321 53.4208 609.864 53.7159 610.197 54.1293C610.529 54.5385 610.696 55.051 610.696 55.6712C610.696 56.1773 610.576 56.6231 610.335 57.0064C610.094 57.3919 609.732 57.6934 609.25 57.9109C608.768 58.1219 608.179 58.2296 607.486 58.2296Z" fill="white"/>
<path d="M613.613 58.1449C613.313 58.1449 613.079 58.063 612.907 57.8951C612.735 57.7292 612.648 57.5074 612.648 57.2318C612.648 56.9626 612.735 56.7408 612.907 56.5685C613.079 56.3919 613.313 56.3015 613.613 56.3015C613.91 56.3015 614.146 56.3855 614.318 56.5513C614.491 56.7193 614.577 56.9389 614.577 57.2146C614.577 57.4902 614.486 57.7142 614.31 57.8864C614.138 58.0587 613.905 58.1449 613.613 58.1449ZM613.613 51.2106C613.313 51.2106 613.079 51.1288 612.907 50.9608C612.735 50.795 612.648 50.5731 612.648 50.2975C612.648 50.0283 612.735 49.8065 612.907 49.6342C613.079 49.4576 613.313 49.3672 613.613 49.3672C613.91 49.3672 614.146 49.4512 614.318 49.617C614.491 49.785 614.577 50.0046 614.577 50.2803C614.577 50.5559 614.486 50.7799 614.31 50.9522C614.138 51.1244 613.905 51.2106 613.613 51.2106Z" fill="white"/>
<path d="M624.139 58.2284C623.037 58.2284 622.159 57.9786 621.505 57.479C620.855 56.9794 620.437 56.2881 620.248 55.403L621.238 54.9551L621.419 54.9809C621.619 55.6657 621.927 56.1761 622.34 56.5142C622.753 56.8544 623.351 57.0224 624.139 57.0224C624.948 57.0224 625.562 56.8394 625.981 56.4711C626.405 56.0986 626.618 55.5537 626.618 54.8345C626.618 54.1346 626.403 53.6005 625.973 53.2323C625.542 52.8597 624.866 52.6723 623.95 52.6723H622.71V51.5697H623.812C624.529 51.5697 625.099 51.3932 625.525 51.0357C625.949 50.6739 626.162 50.17 626.162 49.5196C626.162 48.8994 625.977 48.4386 625.611 48.1328C625.243 47.8227 624.729 47.6676 624.07 47.6676C622.921 47.6676 622.103 48.1241 621.617 49.0372L621.436 49.0717L620.687 48.2534C620.997 47.7257 621.438 47.3015 622.013 46.9785C622.592 46.6576 623.278 46.4961 624.07 46.4961C624.798 46.4961 625.417 46.6124 625.93 46.8407C626.446 47.0646 626.836 47.3898 627.1 47.814C627.363 48.2404 627.496 48.7487 627.496 49.3387C627.496 49.9029 627.333 50.3961 627.006 50.8203C626.683 51.2467 626.252 51.5784 625.714 51.8196V51.9832C626.472 52.1684 627.04 52.5087 627.419 53.0083C627.798 53.5036 627.987 54.1109 627.987 54.8345C627.987 55.9155 627.662 56.7511 627.014 57.3411C626.371 57.9334 625.413 58.2284 624.139 58.2284Z" fill="white"/>
</svg>
